# xmcd
#
# Track frame offsets:
#   150
#   21004
#   42021
#   60275
#   77266
#   92768
#   111132
#   126471
#   142931
#   160208
#   174662
#   188156
#   203799
#   221587
#   239107
#   258123
#   273966
#   286884
#   304893
#   321543
#   337679
#
# Disc length: 4729 seconds
#
# Revision: 0
# Processed by: cddbd v1.5.1PL2 Copyright (c) Steve Scherf et al.
# Submitted via: GXTranscoder 2.0.1939
#
DISCID=25127715
DTITLE=Partykracker Hits - Après Ski 2006, Vol 1
DYEAR=1900
DGENRE=Country
TTITLE0=Markus Becker - 10 kleine Jägermeister
TTITLE1=Niki aus Österreich feat. Olaf Henning - Die Stadl
TTITLE2=Dj Ötzi and Marc Pircher - 7 Sünden
TTITLE3=Mickie Krause - Ich will ne Frau ohne Arschgeweih
TTITLE4=AlmKlausi - Eine Hütte in den Bergen
TTITLE5=Höhner - Ohne dich geht es nicht
TTITLE6=Hot Banditoz - I want it that way
TTITLE7=Romeo Inc. feat FAB - Giulia
TTITLE8=Jürgen and Libero 5 - Der Lu Lu Lukas Song
TTITLE9=Lollies - Wennn du denkst, du denkst ...
TTITLE10=Markus Becker - Wir holen den Titel
TTITLE11=Dj Mox - Es war einmal ein Jäger
TTITLE12=Michael Wendler - Sie liebt den DJ
TTITLE13=Vader Abraham - Schlümpfe 2006
TTITLE14=Olaf Henning - Ik ben niet meer youw clown
TTITLE15=Marry feat. Marc-EL - Simply the best
TTITLE16=Loco Loco - Mosquito
TTITLE17=Dj Ralli - Verdammt ich lieb dich 
TTITLE18=George le bonsai - Ich bin Tarzan
TTITLE19=Dani and Die Wahnsinnskrainer - Wahnsinn
TTITLE20=Peter Wackel - Ladioo
EXTD=
EXTT0=
EXTT1=
EXTT2=
EXTT3=
EXTT4=
EXTT5=
EXTT6=
EXTT7=
EXTT8=
EXTT9=
EXTT10=
EXTT11=
EXTT12=
EXTT13=
EXTT14=
EXTT15=
EXTT16=
EXTT17=
EXTT18=
EXTT19=
EXTT20=
PLAYORDER=
